<?xml version="1.0" encoding="UTF-8"?>
<svg id="Ebene_2" data-name="Ebene 2" xmlns="http://www.w3.org/2000/svg" viewBox="0 0 54.3 53.63">
  <defs>
    <style>
      .cls-1 {
        fill-rule: evenodd;
      }

      .cls-1, .cls-2 {
        fill: #fff;
      }
    </style>
  </defs>
  <g id="Ebene_2-2" data-name="Ebene 2">
    <g id="Ebene_1-2" data-name="Ebene 1-2">
      <path class="cls-1" d="M34.09,9.78c2.39-.17,4.47,1.64,4.64,4.03s-1.64,4.47-4.03,4.64-4.47-1.64-4.64-4.03,1.64-4.47,4.03-4.64"/>
      <path class="cls-1" d="M28.65,30.91s-1.91,3.36-3.89,5.24c5.8,2.13-10.45,5.51-3.75,12.77-1.02-5.47,21.68-11.48,7.64-18.01"/>
      <path class="cls-2" d="M8.04,39.55c-1.05-1.62-1.96-3.42-2.67-5.42-.43-1.32-1.19-5.69-1.2-6.39C3.61,7.91,25.5-2.01,41.02,9.21c.62.42,2.79,2.31,3.22,2.41.27.06.58-.09.63-.37.03-.17-.47-.24-.37-.48l1.43.54-.76-1.24c.44.35.43-.23.56-.21.35.06.7.49,1.08.55.15-.27-.13-.4-.22-.65-.09-.24-.13-.61-.18-.8-.11-.51-.26-.73-.58-1.13-.11-.14-.39-.24-.4-.26-.31-.61,1.06.49,1.08.41.21-.06-.95-1.06-1.07-1.16C33.46-4.29,12.23-1.48,3.92,12.74c-6.13,10.3-4.61,21.7,1.35,29.84.84-.94,1.77-1.96,2.76-3.03"/>
      <path class="cls-2" d="M54.25,25.83c0-.2-.04-.42-.21-.55-.22,1.63-.21,3.28-.45,4.91-.36,2.42-1.03,4.81-2.16,7l-.57.83.9-2.39-.12-.05-.63,1.67c-.22-.05,0-.31.04-.46.28-.83.63-1.63.81-2.5l-.39.02-2.37,4.4.11-.64-.52.49.21-.74c-.43-.22-1.87,2.54-2.3,2.95-9.39,10.85-24.48,11.96-34.08,3.88-1.21.7-2.44,1.34-3.7,1.89,6.29,5.81,15.35,8.74,25.24,6.12,11.59-3.07,20.78-14.63,20.21-26.83"/>
      <path class="cls-1" d="M5.05,44.28c5.36-6.25,16.77-17.18,18.84-23.21-1.26-2.83-10.96-2.42-14.51,3.74,10.2-16.97,17.61-8.62,24.4-4.19,6.79,4.43,17.62-1.39,17.62-1.39-3.57,6.02-14.14,11.49-22.23,5.87-.63,4.91-12.78,19.67-26.42,22.38"/>
    </g>
  </g>
</svg>