<?xml version="1.0" encoding="UTF-8"?>
<svg id="Ebene_2" data-name="Ebene 2" xmlns="http://www.w3.org/2000/svg" viewBox="0 0 205.19 159.32">
  <defs>
    <style>
      .cls-1, .cls-2 {
        fill: #007984;
      }

      .cls-3, .cls-4 {
        fill: #ffae00;
      }

      .cls-4, .cls-2 {
        fill-rule: evenodd;
      }
    </style>
  </defs>
  <g id="Ebene_1-2" data-name="Ebene 1">
    <rect class="cls-3" x="0" y="157.03" width="205.19" height="2.3"/>
    <g>
      <path class="cls-3" d="M186.93,113.88c-.01-2.05-1.15-3.53-3.12-3.57-1.51-.03-2.99.42-4.24,1.38l-.02,14.52c0,1.16.35,2.12.56,3.26-1.9-.05-5.99.76-6.01-2.18l-.09-17.02c0-1.21-.28-2.19-.74-3.29,2.42-.08,4.51-.63,5.92,1.52,3.59-3.04,8.98-3.4,11.98.51,1.1-.81,2.03-1.6,3.31-2.15,2.7-1.15,5.94-.97,8.31.88,1.53,1.19,2.33,3.15,2.34,5.12l.06,16.52c-1.96-.32-3.44-.33-5.34-.23l-.13-15.55c-.02-2.02-1.48-3.37-3.47-3.31-1.41.04-2.65.55-3.89,1.35l.07,12.71c0,1.79.09,3.41.62,5.14-2.09-.17-6.02.79-6.04-2.18l-.09-13.4Z"/>
      <path class="cls-1" d="M46.8,123.3c-1.67,4.51-5.7,6.88-10.33,6.79-4.99-.1-9.03-3-10.34-7.89-.79-2.94-.76-6.04.18-8.98,1.48-4.6,5.66-7.19,10.37-7.17,5.94.04,10.34,4.22,10.86,10.09.21,2.36.14,4.77-.75,7.15M41.2,112.9c-.82-2.16-2.75-3.3-4.84-3.2-1.97.09-3.7,1.34-4.41,3.4-1.59,4.6-1.03,13.42,4.68,13.46,5.87.05,6.37-8.94,4.57-13.66"/>
      <path class="cls-1" d="M81.71,129.06c-3.9,1.65-10.3,1.35-13.37-1.59-.07-1.04,1.05-2.43,2.02-2.85,2.35,1.67,4.94,2.54,7.67,1.88,1.1-.27,1.93-1.01,2.16-1.97,1.38-5.71-12.87-3.85-11.61-12.75.89-6.29,10.98-6.96,15.53-3.87-.02,1.29-.65,2.42-1.66,3.13-2.32-1.73-7.88-2.4-8.52.43-1.13,4.98,11.97,3.32,11.69,11.85-.08,2.58-1.42,4.69-3.9,5.74"/>
      <path class="cls-1" d="M98.89,127.01c.05.65,0,1.88-.54,2.45-1.67.77-3.72.64-5.52.19-1.87-.47-2.95-2.06-2.97-3.99l-.1-14.6-3.64-.19c-.13-1.13-.11-2.2.02-3.33l3.58-.21c.17-2.26.31-5.89-.42-8.11,1.96,0,5.87-.54,5.9,2.35l.06,5.54c1.3.17,2.5,0,3.93.03.26,1.18.33,2.52-.26,3.68l-3.68.27v13.52c0,.88.34,1.71.91,2.11.74.52,1.57.5,2.74.29"/>
      <path class="cls-1" d="M123.01,126.31c1.27-.29,2.2-.76,3.37-1.23.51.75,1.24,1.59,1.34,2.58-.08.58-1.04,1.07-1.62,1.31-5.67,2.4-13.38,1.01-15.61-5.69-1.1-3.3-1.09-6.97.05-10.26,1.5-4.34,5.38-6.87,9.92-6.91,2.36-.02,4.85.17,6.77,1.7.3.99-.66,2.38-1.38,3.12-1.6-.77-3.11-1.43-4.95-1.23-5.75.62-6.38,8.49-4.79,12.87,1.06,2.93,3.85,4.45,6.89,3.75"/>
      <path class="cls-1" d="M57.54,129.01c-1.97.8-4.33.94-6.1-.19-.99-.63-1.28-2.21-1.28-3.39l-.03-23.13c0-1.68.05-3.13-.68-4.87,2.06-.14,6.08-.64,6.09,2.53l.06,25.31c.03,1.55.6,2.56,1.95,3.75"/>
      <path class="cls-1" d="M107.87,129.3c-1.34.24-2.65.27-4.01.15-1.42-.13-2.31-1.13-2.32-2.61l-.08-16.57c0-1.26-.23-2.32-.66-3.48,1.83.05,6.08-.85,6.09,2.07l.05,16.81c0,1.29.35,2.42.93,3.62"/>
      <path class="cls-1" d="M66.2,129.27c-1.36.36-2.6.23-3.92.17-1.4-.06-2.32-1.1-2.33-2.55l-.06-16.16c0-1.42-.19-2.65-.71-3.96,2.13.04,6.11-.86,6.12,2.34l.05,16.39c.02,1.29.23,2.33.84,3.77"/>
      <path class="cls-1" d="M64.1,97.77c1.24.74,1.67,2.1,1.34,3.36-.3,1.17-1.52,1.99-2.92,2.06-1.41.07-2.74-.55-3.22-1.79-.45-1.16-.21-2.72.95-3.49,1.1-.74,2.67-.85,3.86-.14"/>
      <path class="cls-1" d="M106.22,98.08c1.09.94,1.22,2.42.75,3.49-.52,1.18-1.81,1.71-3.15,1.64-1.29-.07-2.39-.75-2.81-1.78-.46-1.14-.2-2.48.77-3.35,1.17-1.05,3.19-1.08,4.44,0"/>
      <path class="cls-1" d="M22.76,125.19v-11.13c-.01-3.25-.83-5.65-2.47-7.22-1.64-1.56-4.64-2.34-6.93-2.34s-4.29.84-6.35,2.52v-6.37h0v-4.53c0-5.68-5.61-5.54-5.61-5.54H.35c1.04,0,1.04,3.9,1.04,3.9,0,0,.47,28.84.47,29.14,0,5.68,5.53,5.46,5.53,5.46h1.04c-1.04,0-1.01-3.9-1.01-3.9l.11-13.69c1.64-1.4,3.26-2.09,4.87-2.09,1.16,0,2.08.18,2.78.54.75.8,2.01,2.1,2.01,3.88,0,0,0,9.16,0,9.8,0,5.68,5.53,5.46,5.53,5.46h1.04c-1.04,0-1.01-3.9-1.01-3.9"/>
      <path class="cls-4" d="M118.53,16.16c3.96-.28,7.39,2.71,7.66,6.66.28,3.96-2.71,7.39-6.66,7.66-3.96.28-7.39-2.71-7.66-6.66-.28-3.96,2.71-7.39,6.66-7.66"/>
      <path class="cls-4" d="M109.54,51.09s-3.15,5.56-6.43,8.66c9.58,3.51-17.26,9.11-6.2,21.11-1.68-9.04,35.83-18.97,12.63-29.77"/>
      <path class="cls-1" d="M75.47,65.36c-1.74-2.68-3.24-5.65-4.42-8.95-.72-2.19-1.96-9.41-1.99-10.57-.91-32.77,35.26-49.17,60.92-30.62,1.02.7,4.61,3.81,5.32,3.98.44.1.95-.15,1.04-.62.05-.29-.77-.39-.61-.8l2.37.89-1.26-2.05c.72.57.71-.38.92-.34.58.1,1.15.82,1.79.92.25-.45-.21-.67-.37-1.07-.16-.4-.22-1.01-.29-1.33-.19-.85-.43-1.21-.96-1.87-.18-.22-.65-.4-.67-.43-.51-1,1.74.8,1.78.67.35-.1-1.57-1.76-1.77-1.91-19.81-18.34-54.89-13.71-68.62,9.8-10.14,17.02-7.62,35.86,2.24,49.31,1.38-1.56,2.93-3.24,4.56-5.01"/>
      <path class="cls-1" d="M151.84,42.69c-.01-.32-.07-.7-.35-.91-.36,2.69-.34,5.42-.74,8.11-.59,4-1.71,7.95-3.56,11.56l-.94,1.36,1.49-3.95-.2-.07-1.04,2.76c-.36-.09-.02-.52.06-.76.46-1.38,1.03-2.7,1.33-4.12l-.64.03-3.92,7.27.17-1.06-.86.8.35-1.22c-.71-.36-3.1,4.2-3.8,4.88-15.52,17.94-40.46,19.77-56.32,6.41-2,1.16-4.04,2.22-6.12,3.13,10.39,9.6,25.36,14.44,41.71,10.12,19.15-5.07,34.34-24.18,33.39-44.34"/>
      <path class="cls-3" d="M132.25,138.56c-1.07-.52-1.94-1.25-2.58-2.11H0v2.3h132.68c-.14-.06-.29-.12-.43-.19"/>
      <path class="cls-3" d="M161.63,136.45c-.84.92-1.78,1.7-2.83,2.3h46.4v-2.3h-43.56Z"/>
      <polygon class="cls-1" points=".59 141.77 5.91 141.77 5.91 143.6 2.6 143.6 2.6 147.16 5.19 147.16 5.19 148.99 2.6 148.99 2.6 154.57 .59 154.57 .59 141.77"/>
      <rect class="cls-1" x="7.77" y="141.77" width="2.01" height="12.8"/>
      <polygon class="cls-1" points="13.75 143.6 11.65 143.6 11.65 141.77 17.87 141.77 17.87 143.6 15.76 143.6 15.76 154.57 13.75 154.57 13.75 143.6"/>
      <polygon class="cls-1" points="19.73 141.77 22.22 141.77 24.25 149.43 24.25 141.77 26.04 141.77 26.04 154.57 24.01 154.57 21.52 145.22 21.52 154.57 19.73 154.57 19.73 141.77"/>
      <polygon class="cls-1" points="28.43 141.77 33.92 141.77 33.92 143.6 30.44 143.6 30.44 146.98 33.21 146.98 33.21 148.81 30.44 148.81 30.44 152.74 33.92 152.74 33.92 154.57 28.43 154.57 28.43 141.77"/>
      <path class="cls-1" d="M35.58,151.53v-.73h1.9v.88c0,.91.4,1.24,1.04,1.24s1.06-.33,1.06-1.28c0-1.06-.44-1.72-1.76-2.87-1.68-1.48-2.25-2.54-2.25-4,0-2.01,1.04-3.18,3-3.18s2.93,1.17,2.93,3.22v.53h-1.9v-.66c0-.91-.37-1.26-1.01-1.26s-1.02.35-1.02,1.23c0,.93.46,1.59,1.77,2.74,1.68,1.48,2.23,2.52,2.23,4.11,0,2.09-1.06,3.26-3.04,3.26s-2.96-1.17-2.96-3.22"/>
      <path class="cls-1" d="M43.24,151.53v-.73h1.9v.88c0,.91.4,1.24,1.04,1.24s1.06-.33,1.06-1.28c0-1.06-.44-1.72-1.76-2.87-1.68-1.48-2.25-2.54-2.25-4,0-2.01,1.04-3.18,3-3.18s2.93,1.17,2.93,3.22v.53h-1.9v-.66c0-.91-.37-1.26-1.01-1.26s-1.02.35-1.02,1.23c0,.93.46,1.59,1.77,2.74,1.68,1.48,2.23,2.52,2.23,4.11,0,2.09-1.06,3.26-3.04,3.26s-2.96-1.17-2.96-3.22"/>
      <path class="cls-1" d="M55.09,141.77h2.98c2.08,0,2.98.97,2.98,2.94v.79c0,1.32-.42,2.16-1.32,2.52v.04c1.01.31,1.33,1.26,1.33,2.71v2.25c0,.62.02,1.08.22,1.55h-2.05c-.11-.33-.18-.53-.18-1.57v-2.34c0-1.19-.35-1.57-1.26-1.57h-.69v5.49h-2.01v-12.8ZM57.84,147.25c.75,0,1.21-.33,1.21-1.35v-.99c0-.91-.31-1.32-1.03-1.32h-.91v3.66h.73Z"/>
      <polygon class="cls-1" points="63.36 141.77 68.85 141.77 68.85 143.6 65.37 143.6 65.37 146.98 68.13 146.98 68.13 148.81 65.37 148.81 65.37 152.74 68.85 152.74 68.85 154.57 63.36 154.57 63.36 141.77"/>
      <path class="cls-1" d="M70.67,151.53v-6.73c0-2.05,1.02-3.22,3-3.22s3,1.17,3,3.22v1.1h-1.9v-1.23c0-.91-.4-1.26-1.04-1.26s-1.04.35-1.04,1.26v7.01c0,.91.4,1.24,1.04,1.24s1.04-.33,1.04-1.24v-2.51h-1v-1.83h2.91v4.19c0,2.05-1.02,3.22-3,3.22s-3-1.17-3-3.22"/>
      <polygon class="cls-1" points="78.88 141.77 84.37 141.77 84.37 143.6 80.89 143.6 80.89 146.98 83.66 146.98 83.66 148.81 80.89 148.81 80.89 152.74 84.37 152.74 84.37 154.57 78.88 154.57 78.88 141.77"/>
      <polygon class="cls-1" points="86.34 141.77 88.83 141.77 90.86 149.43 90.86 141.77 92.65 141.77 92.65 154.57 90.62 154.57 88.14 145.22 88.14 154.57 86.34 154.57 86.34 141.77"/>
      <polygon class="cls-1" points="95.05 141.77 100.53 141.77 100.53 143.6 97.06 143.6 97.06 146.98 99.82 146.98 99.82 148.81 97.06 148.81 97.06 152.74 100.53 152.74 100.53 154.57 95.05 154.57 95.05 141.77"/>
      <path class="cls-1" d="M102.51,141.77h2.98c2.08,0,2.98.97,2.98,2.94v.79c0,1.32-.42,2.16-1.32,2.52v.04c1,.31,1.33,1.26,1.33,2.71v2.25c0,.62.02,1.08.22,1.55h-2.05c-.11-.33-.18-.53-.18-1.57v-2.34c0-1.19-.35-1.57-1.26-1.57h-.69v5.49h-2.01v-12.8ZM105.25,147.25c.75,0,1.21-.33,1.21-1.35v-.99c0-.91-.31-1.32-1.03-1.32h-.91v3.66h.73Z"/>
      <path class="cls-1" d="M114.8,152.06h-2.32l-.35,2.51h-1.87l2.08-12.8h2.72l2.08,12.8h-2.01l-.35-2.51ZM114.54,150.32l-.92-6.45-.9,6.45h1.81Z"/>
      <polygon class="cls-1" points="119.75 143.6 117.65 143.6 117.65 141.77 123.87 141.77 123.87 143.6 121.76 143.6 121.76 154.57 119.75 154.57 119.75 143.6"/>
      <rect class="cls-1" x="125.73" y="141.77" width="2.01" height="12.8"/>
      <path class="cls-1" d="M129.99,151.53v-6.73c0-2.05,1.08-3.22,3.05-3.22s3.05,1.17,3.05,3.22v6.73c0,2.05-1.08,3.22-3.05,3.22s-3.05-1.17-3.05-3.22M134.09,151.66v-6.99c0-.91-.4-1.26-1.04-1.26s-1.04.35-1.04,1.26v6.99c0,.91.4,1.26,1.04,1.26s1.04-.35,1.04-1.26"/>
      <polygon class="cls-1" points="138.35 141.77 140.83 141.77 142.86 149.43 142.86 141.77 144.66 141.77 144.66 154.57 142.63 154.57 140.14 145.22 140.14 154.57 138.35 154.57 138.35 141.77"/>
      <path class="cls-1" d="M150.87,141.77h3.04c2.08,0,2.98.97,2.98,2.94v.51c0,1.32-.4,2.14-1.3,2.5v.04c1.08.36,1.5,1.32,1.5,2.67v1.1c0,1.97-1.04,3.04-3.05,3.04h-3.16v-12.8ZM153.67,146.98c.75,0,1.21-.33,1.21-1.35v-.71c0-.91-.31-1.32-1.02-1.32h-.97v3.38h.79ZM154.04,152.74c.68,0,1.04-.31,1.04-1.26v-1.12c0-1.19-.38-1.55-1.3-1.55h-.9v3.93h1.15Z"/>
      <path class="cls-1" d="M163.12,152.06h-2.32l-.35,2.51h-1.87l2.08-12.8h2.73l2.09,12.8h-2.01l-.35-2.51ZM162.87,150.32l-.91-6.45-.9,6.45h1.81Z"/>
      <polygon class="cls-1" points="167.33 141.77 169.34 141.77 169.34 152.74 172.65 152.74 172.65 154.57 167.33 154.57 167.33 141.77"/>
      <path class="cls-1" d="M178.58,152.06h-2.32l-.35,2.51h-1.87l2.08-12.8h2.73l2.09,12.8h-2.01l-.35-2.51ZM178.32,150.32l-.91-6.45-.9,6.45h1.81Z"/>
      <polygon class="cls-1" points="182.78 141.77 185.27 141.77 187.3 149.43 187.3 141.77 189.09 141.77 189.09 154.57 187.06 154.57 184.57 145.22 184.57 154.57 182.78 154.57 182.78 141.77"/>
      <path class="cls-1" d="M191.34,151.6v-6.88c0-1.98,1.02-3.15,2.96-3.15s2.96,1.17,2.96,3.15v1.35h-1.9v-1.48c0-.84-.4-1.19-1.01-1.19s-1.01.35-1.01,1.19v7.15c0,.84.4,1.17,1.01,1.17s1.01-.33,1.01-1.17v-1.87h1.9v1.72c0,1.97-1.02,3.15-2.96,3.15s-2.96-1.17-2.96-3.15"/>
      <polygon class="cls-1" points="199.35 141.77 204.83 141.77 204.83 143.6 201.36 143.6 201.36 146.98 204.12 146.98 204.12 148.81 201.36 148.81 201.36 152.74 204.83 152.74 204.83 154.57 199.35 154.57 199.35 141.77"/>
      <path class="cls-2" d="M70.53,73.18c8.86-10.32,27.71-28.39,31.13-38.35-2.09-4.68-18.12-3.99-23.98,6.19,16.85-28.05,29.11-14.25,40.33-6.92,11.23,7.33,29.12-2.3,29.12-2.3-5.89,9.95-23.37,18.98-36.74,9.71-1.04,8.11-21.12,32.51-43.66,36.99"/>
      <path class="cls-3" d="M144.06,121.49c-2.17.81-4.24.69-6.48.77-.92.03-1.51,1.69-.92,2.33,1.45,1.57,9.93.32,12.58,3.6,2.38,2.95,1.11,7.19-2.23,8.81-3.87,1.88-10.33,2.03-14.11.21-2.16-1.04-3.48-3.28-2.8-5.64.42-1.46,1.59-2.4,2.87-3.32-.88-.97-1.41-2.02-1.29-3.33.28-3.11,3.1-2.79,2.78-3.71-2.52-1.27-3.98-3.47-4.16-6.25-.25-3.72,1.84-6.83,5.42-8.03,2.67-.9,5.4-.55,8.2-.15,6.26.88,11.31-1.75,12.66,2.07l5.05,14.29,5.35-16.33,5.22.2-8.49,23.02c-1.65,4.49-5.22,9.09-10.49,8.34-.5-1.02-1.11-1.87-1.19-3,3.01-.16,6.5-2.87,6.69-5.96l-6.58-17.23c-.23-.59-.57-1.45-1.08-1.7-.98-.46-2.06-.19-3.18-.15,1.31,2.07,1.56,4.26.71,6.75-.63,1.85-2.24,3.56-4.55,4.42M142.46,117.89c1.15-1.07,1.28-2.5,1.28-3.87,0-1.95-1.04-3.62-2.8-4.15-1.64-.49-3.7-.02-4.65,1.64-1.09,1.92-1.04,4.66.53,6.32,1.43,1.51,4.14,1.44,5.64.05M145.49,133.21c.2-.68.17-1.62-.36-2.1-.85-.77-1.95-.98-3.09-1.1-1.84-.19-3.7-.61-5.51-.49-.98.06-1.69,1.71-1.79,2.5-.19,1.44.56,2.61,1.87,2.99,2.54.74,8.12.85,8.88-1.79"/>
    </g>
  </g>
</svg>