<?xml version="1.0" encoding="UTF-8"?><svg id="Ebene_2" xmlns="http://www.w3.org/2000/svg" viewBox="0 0 297.64 57.75"><defs><style>.cls-1,.cls-2{fill:#007984;}.cls-3,.cls-4{fill:#ffae00;}.cls-4,.cls-2{fill-rule:evenodd;}</style></defs><g id="Ebene_1-2"><path class="cls-3" d="M276.73,29.57c-.01-2.35-1.32-4.04-3.57-4.09-1.73-.04-3.42.48-4.85,1.57l-.02,16.62c0,1.33.4,2.43.64,3.73-2.18-.05-6.86.87-6.88-2.49l-.11-19.48c0-1.38-.32-2.5-.85-3.77,2.77-.1,5.16-.72,6.78,1.74,4.11-3.49,10.28-3.9,13.71.58,1.26-.93,2.33-1.84,3.79-2.46,3.09-1.32,6.8-1.11,9.52,1,1.75,1.36,2.67,3.6,2.68,5.87l.07,18.91c-2.25-.36-3.94-.37-6.11-.26l-.15-17.8c-.02-2.31-1.7-3.85-3.97-3.79-1.62.04-3.04.63-4.45,1.54l.08,14.55c.01,2.05.1,3.9.71,5.88-2.39-.19-6.89.91-6.91-2.49l-.1-15.35Z"/><path class="cls-1" d="M116.3,40.36c-1.91,5.17-6.53,7.88-11.82,7.78-5.71-.11-10.34-3.44-11.83-9.03-.9-3.37-.87-6.92.21-10.28,1.7-5.26,6.48-8.24,11.87-8.2,6.81.04,11.84,4.83,12.43,11.55.24,2.7.16,5.46-.85,8.19M109.88,28.45c-.94-2.47-3.15-3.78-5.54-3.67-2.25.11-4.23,1.53-5.05,3.9-1.82,5.26-1.18,15.36,5.35,15.41,6.72.05,7.3-10.24,5.23-15.64"/><path class="cls-1" d="M156.27,46.95c-4.47,1.88-11.79,1.55-15.31-1.82-.08-1.19,1.21-2.78,2.32-3.27,2.69,1.92,5.66,2.91,8.78,2.15,1.25-.31,2.21-1.16,2.48-2.26,1.58-6.54-14.74-4.41-13.3-14.6,1.02-7.2,12.57-7.97,17.78-4.43-.03,1.48-.75,2.77-1.91,3.59-2.66-1.97-9.02-2.75-9.76.5-1.29,5.71,13.7,3.81,13.38,13.56-.1,2.96-1.63,5.37-4.47,6.57"/><path class="cls-1" d="M175.93,44.6c.06.74-.01,2.16-.61,2.81-1.92.89-4.26.73-6.32.22-2.14-.53-3.38-2.36-3.4-4.57l-.11-16.72-4.17-.22c-.15-1.3-.12-2.52.02-3.82l4.09-.24c.2-2.59.35-6.74-.48-9.29,2.24,0,6.72-.61,6.75,2.69l.07,6.35c1.49.19,2.86,0,4.5.04.3,1.35.38,2.88-.3,4.21l-4.22.31v15.48c0,1,.38,1.96,1.04,2.42.85.59,1.8.57,3.13.33"/><path class="cls-1" d="M203.55,43.8c1.45-.34,2.52-.87,3.86-1.41.58.86,1.42,1.82,1.54,2.95-.09.66-1.2,1.22-1.85,1.5-6.49,2.75-15.32,1.16-17.87-6.52-1.26-3.78-1.25-7.98.06-11.75,1.72-4.97,6.16-7.87,11.36-7.91,2.71-.02,5.55.19,7.75,1.95.34,1.13-.75,2.72-1.58,3.57-1.83-.89-3.56-1.64-5.67-1.41-6.58.71-7.3,9.72-5.49,14.73,1.21,3.35,4.41,5.1,7.89,4.29"/><path class="cls-1" d="M128.59,46.89c-2.25.91-4.96,1.08-6.98-.22-1.13-.72-1.46-2.53-1.47-3.88l-.04-26.49c0-1.92.06-3.58-.78-5.58,2.36-.16,6.96-.73,6.97,2.9l.06,28.97c.03,1.77.69,2.93,2.23,4.29"/><path class="cls-1" d="M186.22,47.22c-1.54.27-3.03.31-4.59.17-1.62-.15-2.64-1.3-2.65-2.99l-.09-18.97c0-1.44-.26-2.66-.76-3.98,2.09.06,6.97-.97,6.98,2.37l.05,19.25c0,1.48.39,2.77,1.06,4.15"/><path class="cls-1" d="M138.51,47.19c-1.56.41-2.97.27-4.48.2-1.6-.07-2.66-1.26-2.66-2.92l-.06-18.5c0-1.63-.22-3.04-.82-4.53,2.44.04,7-.99,7.01,2.68l.06,18.76c.02,1.48.27,2.67.96,4.32"/><path class="cls-1" d="M136.1,11.13c1.42.84,1.91,2.4,1.53,3.85-.35,1.33-1.75,2.28-3.35,2.36-1.61.08-3.13-.63-3.69-2.05-.52-1.33-.24-3.12,1.08-4,1.26-.84,3.05-.97,4.42-.16"/><path class="cls-1" d="M184.32,11.48c1.25,1.07,1.4,2.76.86,4-.6,1.35-2.07,1.96-3.61,1.88-1.48-.08-2.74-.86-3.21-2.04-.52-1.3-.23-2.84.88-3.83,1.34-1.2,3.65-1.24,5.09,0"/><path class="cls-1" d="M88.77,42.51l-.02-12.75c0-3.72-.94-6.47-2.82-8.26-1.88-1.79-5.31-2.68-7.93-2.68s-4.91.97-7.27,2.88v-7.29h0v-5.18c0-6.51-6.42-6.34-6.42-6.34h-1.19c1.19,0,1.19,4.47,1.19,4.47,0,0,.53,33.02.53,33.37,0,6.51,6.33,6.25,6.33,6.25h1.19c-1.19,0-1.16-4.47-1.16-4.47l.12-15.68c1.88-1.6,3.73-2.4,5.58-2.4,1.32,0,2.38.21,3.19.62.86.92,2.3,2.4,2.3,4.44,0,0,.01,10.48.01,11.22,0,6.51,6.33,6.25,6.33,6.25h1.19c-1.19,0-1.16-4.47-1.16-4.47"/><path class="cls-4" d="M34.09,9.78c2.39-.17,4.47,1.64,4.64,4.03.17,2.39-1.64,4.47-4.03,4.64-2.39.17-4.47-1.64-4.64-4.03s1.64-4.47,4.03-4.64"/><path class="cls-4" d="M28.65,30.91s-1.91,3.36-3.89,5.24c5.8,2.13-10.45,5.51-3.75,12.77-1.02-5.47,21.68-11.48,7.64-18.01"/><path class="cls-1" d="M8.04,39.55c-1.05-1.62-1.96-3.42-2.67-5.42-.43-1.32-1.19-5.69-1.2-6.39C3.61,7.91,25.5-2.01,41.02,9.21c.62.42,2.79,2.31,3.22,2.41.27.06.58-.09.63-.37.03-.17-.47-.24-.37-.48l1.43.54-.76-1.24c.44.35.43-.23.56-.21.35.06.7.49,1.08.55.15-.27-.13-.4-.22-.65-.09-.24-.13-.61-.18-.8-.11-.51-.26-.73-.58-1.13-.11-.14-.39-.24-.4-.26-.31-.61,1.06.49,1.08.41.21-.06-.95-1.06-1.07-1.16C33.46-4.29,12.23-1.48,3.92,12.74c-6.13,10.3-4.61,21.7,1.35,29.84.84-.94,1.77-1.96,2.76-3.03"/><path class="cls-1" d="M54.25,25.83c0-.2-.04-.42-.21-.55-.22,1.63-.21,3.28-.45,4.91-.36,2.42-1.03,4.81-2.16,7l-.57.83.9-2.39-.12-.05-.63,1.67c-.22-.05-.01-.31.04-.46.28-.83.63-1.63.81-2.5l-.39.02-2.37,4.4.11-.64-.52.49.21-.74c-.43-.22-1.87,2.54-2.3,2.95-9.39,10.85-24.48,11.96-34.08,3.88-1.21.7-2.44,1.34-3.7,1.89,6.29,5.81,15.35,8.74,25.24,6.12,11.59-3.07,20.78-14.63,20.21-26.83"/><path class="cls-2" d="M5.05,44.28c5.36-6.25,16.77-17.18,18.84-23.21-1.26-2.83-10.96-2.42-14.51,3.74,10.2-16.97,17.61-8.62,24.4-4.19,6.79,4.43,17.62-1.39,17.62-1.39-3.57,6.02-14.14,11.49-22.23,5.87-.63,4.91-12.78,19.67-26.42,22.38"/><path class="cls-3" d="M227.65,38.28c-2.49.93-4.86.79-7.42.88-1.06.03-1.73,1.93-1.05,2.66,1.66,1.8,11.37.36,14.4,4.12,2.72,3.38,1.27,8.24-2.55,10.09-4.43,2.15-11.83,2.32-16.15.24-2.48-1.19-3.98-3.76-3.2-6.46.48-1.67,1.82-2.75,3.28-3.8-1-1.11-1.61-2.31-1.48-3.81.32-3.56,3.55-3.2,3.19-4.25-2.89-1.46-4.55-3.97-4.76-7.16-.28-4.26,2.11-7.82,6.21-9.19,3.05-1.03,6.19-.63,9.39-.17,7.17,1.01,12.95-2,14.5,2.37l5.78,16.36,6.13-18.69,5.98.23-9.72,26.35c-1.89,5.14-5.98,10.41-12.02,9.54-.57-1.17-1.28-2.14-1.36-3.44,3.45-.19,7.44-3.29,7.66-6.83l-7.53-19.73c-.26-.68-.65-1.66-1.24-1.94-1.12-.53-2.36-.21-3.64-.17,1.5,2.37,1.78,4.88.81,7.73-.72,2.11-2.57,4.08-5.21,5.06M225.82,34.16c1.32-1.23,1.46-2.86,1.47-4.43,0-2.23-1.19-4.14-3.21-4.75-1.88-.57-4.24-.03-5.32,1.88-1.25,2.2-1.19,5.34.61,7.24,1.64,1.73,4.75,1.65,6.45.06M229.29,51.69c.23-.78.2-1.85-.42-2.41-.97-.88-2.24-1.12-3.54-1.26-2.11-.22-4.24-.7-6.31-.57-1.12.07-1.93,1.95-2.05,2.86-.22,1.65.64,2.98,2.14,3.42,2.91.84,9.29.98,10.17-2.05"/></g></svg>