<?xml version="1.0" encoding="UTF-8"?>
<svg id="Ebene_2" data-name="Ebene 2" xmlns="http://www.w3.org/2000/svg" viewBox="0 0 304.18 67.32">
  <defs>
    <style>
      .cls-1 {
        fill: #fff;
      }
    </style>
  </defs>
  <g id="Ebene_1-2" data-name="Ebene 1">
    <path class="cls-1" d="M300.82,31.42c1.1.97,1.65,2.22,1.65,3.76s-.44,2.68-1.32,3.43c-.88.75-1.89,1.12-3.04,1.12-.31,0-.62-.02-.92-.07,0-1.63-.64-3-1.91-4.12-1.28-1.12-2.7-1.68-4.26-1.68s-2.76.3-3.6.89c-.84.59-1.25,1.37-1.25,2.34s.6,1.84,1.81,2.61c1.21.77,2.93,1.59,5.15,2.48,2.22.88,3.82,1.57,4.79,2.08.97.51,2,1.18,3.1,2.01,2.11,1.59,3.17,3.93,3.17,7.03s-1.25,5.71-3.76,7.82c-2.51,2.11-5.85,3.17-10.03,3.17-3.08,0-5.77-.57-8.08-1.72-2.31-1.14-3.47-2.86-3.47-5.15,0-1.54.55-2.74,1.65-3.6,1.1-.86,2.4-1.29,3.89-1.29.57,4.49,3.13,6.73,7.66,6.73,3.65,0,5.48-1.21,5.48-3.63,0-1.58-.97-2.86-2.9-3.83-1.06-.57-2.33-1.14-3.83-1.72-1.5-.57-2.67-1.07-3.53-1.49-.86-.42-1.79-.96-2.81-1.62-1.01-.66-1.85-1.34-2.51-2.05-1.45-1.63-2.18-3.61-2.18-5.94,0-3.17,1.28-5.63,3.83-7.39,2.55-1.76,5.61-2.64,9.17-2.64s6.25.81,8.05,2.44"/>
    <path class="cls-1" d="M121.94,59.05s-.06-21.39-.06-22.32c0-8.24-8.02-7.92-8.02-7.92h-1.51c1.51,0,1.47,5.66,1.47,5.66,0,0-.03,20.09-.03,21.02,0,.27,0,.53.03.78-1.96,1.46-4.02,2.19-6.19,2.19s-3.83-.57-4.88-1.72c-1.06-1.14-1.59-3.08-1.59-5.81,0,0-.01-13.27-.01-14.21,0-8.24-8.02-7.92-8.02-7.92h-1.51c1.51,0,1.47,5.66,1.47,5.66l.02,16.14c0,4.71,1.19,8.2,3.56,10.46,2.38,2.27,5.23,3.4,8.55,3.4s6.55-1.34,9.67-4.03l.29-.05c2.29,3.19,6.63,3.02,6.63,3.02h1.51c-1.04,0-1.37-4.36-1.37-4.36"/>
    <path class="cls-1" d="M275.48,59.05s-.06-21.39-.06-22.32c0-8.24-8.02-7.92-8.02-7.92h-1.51c1.51,0,1.47,5.66,1.47,5.66,0,0-.03,20.09-.03,21.02,0,.27,0,.53.03.78-1.96,1.46-4.02,2.19-6.19,2.19s-3.83-.57-4.88-1.72c-1.06-1.14-1.59-3.08-1.59-5.81,0,0-.01-13.27-.01-14.21,0-8.24-8.02-7.92-8.02-7.92h-1.51c1.51,0,1.46,5.66,1.46,5.66l.02,16.14c0,4.71,1.19,8.2,3.56,10.46,2.38,2.27,5.23,3.4,8.55,3.4s6.55-1.34,9.67-4.03l.29-.05c2.29,3.19,6.64,3.02,6.64,3.02h1.51c-1.04,0-1.37-4.36-1.37-4.36"/>
    <path class="cls-1" d="M214.19,34.22s.06,21.39.06,22.32c0,8.24,8.02,7.92,8.02,7.92h1.51c-1.51,0-1.47-5.66-1.47-5.66,0,0,.03-20.09.03-21.02,0-.27-.01-.53-.03-.78,1.96-1.46,4.02-2.19,6.19-2.19s3.83.57,4.88,1.72c1.06,1.15,1.58,3.08,1.58,5.81,0,0,.01,13.27.01,14.21,0,8.24,8.02,7.92,8.02,7.92h1.51c-1.51,0-1.46-5.66-1.46-5.66l-.02-16.14c0-4.71-1.19-8.2-3.56-10.46-2.38-2.27-5.23-3.4-8.55-3.4s-6.55,1.34-9.67,4.03l-.29.06c-2.29-3.2-6.64-3.03-6.64-3.03h-1.51c1.04,0,1.37,4.36,1.37,4.36"/>
    <path class="cls-1" d="M199.37,50.5c-1.59-.57-3.25-.86-4.98-.86s-3.18.41-4.32,1.22c-1.15.81-1.72,1.97-1.72,3.47,0,3.08,1.59,4.62,4.75,4.62,2.24,0,4.34-.64,6.27-1.91v-6.53ZM212.46,60.33c0,2.64-2.46,3.96-5.9,3.96s-5.66-1.14-6.67-3.43c-2.77,2.29-5.83,3.43-9.18,3.43s-5.97-.83-7.89-2.48c-1.91-1.65-2.87-3.92-2.87-6.8s1.12-5.25,3.37-7.1c2.24-1.85,5.79-2.77,10.63-2.77,1.89,0,3.7.13,5.41.4v-2.91c0-3.04-.49-5.19-1.48-6.47-.99-1.28-2.34-1.91-4.06-1.91s-3.09.55-4.13,1.65c-1.03,1.1-1.55,2.6-1.55,4.49-.35.05-.94.07-1.75.07s-1.75-.33-2.81-.99c-1.06-.66-1.58-1.74-1.58-3.24,0-2.11,1.1-3.85,3.3-5.21,2.2-1.36,5.04-2.05,8.51-2.05,9.07,0,13.6,4.4,13.6,13.2,0,0-.22,16.1.75,17.62,2.02,3.2,4.29.53,4.29.53"/>
    <path class="cls-1" d="M87.98,59.2l-.02-16.14c0-4.71-1.19-8.2-3.56-10.46-2.38-2.27-6.73-3.4-10.05-3.4s-6.22,1.23-9.2,3.65v-9.24h-.01v-6.56c0-8.24-8.13-8.03-8.13-8.03h-1.51c1.51,0,1.51,5.66,1.51,5.66,0,0,.67,41.81.67,42.26,0,8.24,8.02,7.92,8.02,7.92h1.51c-1.51,0-1.47-5.65-1.47-5.65l.15-19.85c2.38-2.02,4.73-3.04,7.06-3.04,1.67,0,3.02.27,4.03.79,1.09,1.16,2.92,3.04,2.92,5.63,0,0,.01,13.27.01,14.21,0,8.24,8.02,7.92,8.02,7.92h1.51c-1.51,0-1.47-5.65-1.47-5.65"/>
    <path class="cls-1" d="M174.98,58.81l-.02-16.14c0-4.71-1.19-8.2-3.56-10.46-2.38-2.27-5.23-3.4-8.55-3.4s-7.02,1.33-10.13,3.97c-.17-.19-.34-.4-.53-.57-2.38-2.27-5.22-3.4-8.55-3.4s-6.03,1.34-9.15,4.03l-.29.06c-2.29-3.19-6.64-3.02-6.64-3.02h-1.51c1.04,0,1.37,4.36,1.37,4.36,0,0,.06,21.39.06,22.32,0,8.24,8.02,7.92,8.02,7.92h1.51c-1.51,0-1.47-5.65-1.47-5.65,0,0,.03-20.09.03-21.02,0-.27-.01-.53-.03-.78,1.96-1.46,4.02-2.19,6.19-2.19s3.31.57,4.37,1.72c1.06,1.14,1.59,3.08,1.59,5.81,0,0,.01,13.27.01,14.21,0,8.24,8.02,7.92,8.02,7.92h1.51c-1.51,0-1.46-5.65-1.46-5.65l-.02-16.14c0-2.46-.33-4.57-.98-6.36,1.64-.99,3.87-1.49,5.66-1.49,2.2,0,3.83.57,4.88,1.72,1.06,1.14,1.59,3.08,1.59,5.81,0,0,.01,13.27.01,14.21,0,8.24,8.02,7.92,8.02,7.92h1.51c-1.51,0-1.46-5.65-1.46-5.65"/>
    <path class="cls-1" d="M20.64,42.51l-2.54-2.54c-4.23-4.23-6.92-1.54-6.92-1.54l-.52.52c.52-.52,3.42,2.39,3.42,2.39l2.76,2.76v12.5c0,1.05.85,1.9,1.9,1.9s1.9-.85,1.9-1.9v-14.08Z"/>
    <path class="cls-1" d="M32.4,38.43s-2.69-2.69-6.92,1.54l-2.54,2.54v14.08c0,1.05.85,1.9,1.9,1.9s1.9-.85,1.9-1.9v-12.5l2.76-2.76s2.9-2.9,3.42-2.39l-.52-.52Z"/>
    <path class="cls-1" d="M21.79,39.64c1.86,0,3.38-1.51,3.38-3.38s-1.51-3.37-3.38-3.37-3.38,1.51-3.38,3.37,1.51,3.38,3.38,3.38"/>
    <path class="cls-1" d="M14.91,9.44s0-1.15.15-2.28c.08-.58.2-1.25.43-1.76h-.18s-1.49.01-2.93.78c-1.89,1-2.85,2.79-2.85,5.31v20c0,1.48,1.2,2.69,2.69,2.69s2.69-1.2,2.69-2.69V9.44Z"/>
    <path class="cls-1" d="M24.18,4.05s0-1.15.15-2.28c.08-.58.2-1.25.43-1.76h-.18s-1.49.01-2.93.78c-1.89,1-2.85,2.79-2.85,5.31v20c0,1.48,1.2,2.68,2.69,2.68s2.68-1.2,2.68-2.68V4.05Z"/>
    <path class="cls-1" d="M33.45,9.44s0-1.15.15-2.28c.08-.58.2-1.25.43-1.76h-.18s-1.49.01-2.93.78c-1.89,1-2.85,2.79-2.85,5.31v20c0,1.48,1.2,2.69,2.69,2.69s2.68-1.2,2.68-2.69V9.44Z"/>
    <path class="cls-1" d="M43.58,15.31h-.18s-1.49.01-2.93.78c-1.89,1-2.85,2.79-2.85,5.31s.14,24.84.14,25.06c0,8.46-7.45,15.61-16.27,15.61-4.08,0-7.94-1.57-10.88-4.42-2.92-2.85-4.6-6.65-4.72-10.72v-.05s0-.02,0-.02c.04-.8.06-17.63.06-20.58,0-2.53-.97-4.32-2.88-5.32-1.44-.76-2.89-.76-2.9-.76h-.18c.24.51.36,1.19.44,1.77.15,1.13.15,2.24.15,2.28,0,7.53.03,21.84.05,22.55h0s0,.04,0,.04c.19,11.3,9.55,20.49,20.85,20.49s21.52-9.55,21.52-20.86l-.02-27.1s0-1.15.15-2.28c.08-.58.2-1.25.43-1.77"/>
  </g>
</svg>