<?xml version="1.0" encoding="UTF-8"?>
<svg id="Ebene_2" data-name="Ebene 2" xmlns="http://www.w3.org/2000/svg" viewBox="0 0 841.89 131.59">
  <defs>
    <style>
      .cls-1 {
        fill: #fff;
      }
    </style>
  </defs>
  <g id="Ebene_1-2" data-name="Ebene 1">
    <path class="cls-1" d="M832.01,21.24c0-.34-.08-.56-.27-.67-.18-.09-.47-.15-.85-.15h-3.8v1.88h4.02c.32,0,.56-.08.69-.21.13-.14.21-.34.21-.61v-.25ZM834.15,22.56c-.1.15-.24.29-.41.4-.19.11-.42.23-.7.29.18.04.36.08.51.15.16.06.3.16.42.29.12.13.22.3.29.51.06.2.11.47.11.79v1.36h-2.43v-.94c0-.42-.08-.71-.22-.86-.14-.16-.41-.24-.8-.24h-3.82v2.05h-2.46v-7.9h7.37c.47,0,.86.06,1.17.16.31.12.56.28.74.48.17.2.3.45.38.74.08.29.12.6.12.96v.5c0,.27-.03.5-.06.7-.04.22-.11.4-.21.57M825.39,11.4c-5.75,2.17-8.68,8.58-6.51,14.33,2.16,5.76,8.57,8.68,14.33,6.52,5.76-2.16,8.68-8.57,6.51-14.32-2.15-5.77-8.56-8.69-14.32-6.52M829.3,34.42c-6.95,0-12.6-5.64-12.6-12.59s5.65-12.6,12.6-12.6,12.59,5.64,12.59,12.6-5.65,12.59-12.59,12.59M462.75,33.53v63.62c0,1.25.57,1.77,1.97,1.77h20.13c1.4,0,1.98-.52,1.98-1.77.03-21.2,0-42.41,0-63.62,0-1.26-.58-1.76-1.98-1.76h-20.13c-1.4,0-1.97.51-1.97,1.76M272.75,38.03v59.11c0,1.37.7,1.77,1.98,1.77h20.12c1.29,0,1.98-.4,1.98-1.77v-49.1c0-3.58,3.29-5.95,6.63-5.95h33.32c3.33,0,6.62,2.37,6.62,5.95v49.1c0,1.37.7,1.77,1.98,1.77h20.14c1.28,0,1.98-.4,1.98-1.77v-49.1c0-3.58,3.28-5.95,6.62-5.95h23.42c9.18,0,16.53,3.47,16.53,13.8v41.25c0,1.37.69,1.77,1.97,1.77h20.14c1.27,0,1.97-.4,1.97-1.77v-41.25c0-22.54-23.62-24.13-40.08-24.13h-118.36c-3.51,0-6.97,2.49-6.97,6.27M825.82,55.9c0-22.54-23.61-24.13-40.07-24.13h-68.13c-3.51,0-6.97,2.49-6.97,6.27v59.11c0,1.37.69,1.77,1.98,1.77h20.13c1.28,0,1.98-.4,1.98-1.77v-49.1c0-3.58,3.29-5.95,6.62-5.95h43.85c9.17,0,16.53,3.47,16.53,13.8v41.25c0,1.37.69,1.77,1.97,1.77h20.14c1.28,0,1.97-.4,1.97-1.77v-41.25ZM510.98,2.17v94.98c0,1.25.58,1.77,1.98,1.77h20.13c1.4,0,1.98-.52,1.98-1.77V2.17c0-1.26-.58-1.78-1.98-1.78h-20.13c-1.41,0-1.98.53-1.98,1.78M667.71,77.41c0,4.1-3.71,7.29-7.87,9.06-4.18,1.77-8.79,2.12-13.23,2.12h-45.62c-4.44,0-9.07-.36-13.23-2.12-4.16-1.77-7.88-4.96-7.88-9.06v-24.13c0-4.11,3.72-7.3,7.88-9.07,4.17-1.77,8.79-2.11,13.23-2.11h45.62c4.44,0,9.05.35,13.23,2.11,4.16,1.77,7.87,4.96,7.87,9.07v24.13ZM691.8,74.79v-18.89c0-8.63-6.24-15.48-14.03-19.35-7.78-3.87-17.09-4.75-26.06-4.78h-55.85c-8.95.02-18.27.91-26.06,4.78-7.78,3.88-14.03,10.72-14.03,19.35v18.89c0,8.63,6.25,15.48,14.03,19.36,7.79,3.86,17.11,4.75,26.06,4.78h55.85c8.97-.02,18.28-.92,26.06-4.78,7.78-3.88,14.03-10.72,14.03-19.36M89.98,117.92c1.38-.12,2.65.15,2.13,1.79-.89,2.77-1.77,5.54-2.67,8.31-.69,2.16-2.04,2.62-4.06,2.78-19.74,1.79-45.17,1.13-63.98-7.99-1.81-.89-.09-2.09,1-2.87,3.12-2.27,6.24-4.54,9.37-6.8,1.26-.9,2.24-1.74,3.94-1.01,18.17,7.74,35.44,7.56,54.27,5.81M185.05,1.94c.86-.63,1.68-.74,2.69-.6,12.03,1.66,22.88,4.32,33.22,11.38.94.64-.27,1.15-1,1.38-2.42.76-4.86,1.51-7.28,2.25-.99.31-1.81.64-2.8-.08-8.75-6.47-18.05-8.88-28.44-10.48-.59-.1-.9-.58-.36-.97,1.32-.95,2.65-1.92,3.97-2.87M217.56,52.03c.71-1.45,1.8-1.31,3.1-1.29,3.21.04,6.45.08,9.67.14,1.18.02,2.86-.08,2.2,1.54-6.89,16.54-23.34,30.7-37.26,40.13-1.56,1.05-2.77,1.41-4.47.25-2.27-1.56-4.53-3.11-6.8-4.68-1.3-.88-.68-1.82.42-2.55,13.73-8.98,25.5-18.03,33.13-33.54M215.67,18.95c2.47-.77,4.95-1.54,7.43-2.31,1.08-.34,1.98-.8,3,.18,8.77,8.3,11.27,16.09,8.83,27.92-.37,1.83-1.73,1.42-3.07,1.41-3.16-.02-6.32-.05-9.48-.08-1.02,0-2.46.23-2.07-1.28,2.65-9.93,1.31-16.84-5.81-24.47-.82-.88.44-1.15,1.17-1.38M136.86,2.45c14.18-2.16,28.15-3.07,42.5-2,.6.04,1.1.52.52.93-1.33.94-2.66,1.89-3.99,2.84-.8.57-1.58.7-2.53.62-12.74-1.06-25.17-.29-37.76,1.58-1.07.16-1.67.34-1.46-.43.24-.85.48-1.7.72-2.55.25-.89.79-.81,2-1M2.64,80.34c5.12-13.24,13.78-22.17,24.17-31.01.92-.77,1.81-1.13,3.02-1.12,1.95.03,3.9.05,5.87.08.7,0,.86.6.34,1.06-8.65,7.69-15.8,15.35-19.63,26.86-.46,1.41-1.54,1.53-2.68,1.88-3.01.94-6,1.87-9.01,2.79-.87.28-2.6.79-2.08-.54M83.18,16.93c14.43-5.63,29.05-9.9,44.26-12.85.81-.15,1.84-.46,1.58.37-.27.86-.56,1.72-.83,2.56-.26.81-.68.77-1.88,1-13.59,2.64-26.66,6.47-39.53,11.55-.77.3-1.39.81-2.26.2-.81-.56-1.63-1.12-2.44-1.67-.88-.61.51-.94,1.09-1.17M34.14,43.5c12.44-9.28,25.69-16.55,39.86-22.76.8-.36,1.46-.98,2.4-.29.79.57,1.59,1.15,2.37,1.72.81.6-.42.92-.96,1.15-12.43,5.56-24.03,12.03-34.88,20.34-.85.66-1.69.99-2.8.98-1.94-.02-3.87-.03-5.81-.05-.74,0-.72-.71-.18-1.1M13.16,117.84C3.15,110.38-1.81,99.98.6,87.37c.34-1.74,1.64-1.77,2.91-2.17,3.08-.96,6.15-1.92,9.2-2.87.89-.27,2.4-1.07,2.23.43-1.24,10.87,4.08,19.26,12.72,25.06,1.47.99-.13,1.82-1.07,2.5-3.1,2.21-6.21,4.41-9.3,6.62-1.33.94-2.36,2.24-4.15.91M175.86,93c2.22,1.62,4.45,3.24,6.68,4.86,1.55,1.13.62,2.22-.76,3-25.07,14.1-50.74,22.84-79.03,27.66-1.62.28-3.25.09-2.69-1.91.78-2.76,1.57-5.54,2.35-8.3.54-1.9,1.76-2.25,3.46-2.54,23.46-4.12,44.95-11.36,65.94-22.71,1.44-.78,2.56-1.16,4.05-.07"/>
  </g>
</svg>